<svg width="28" height="28" viewBox="0 0 28 28" fill="none" xmlns="http://www.w3.org/2000/svg">
<g clip-path="url(#clip0_2_17445)">
<path d="M10.9436 22.4229L9.60742 21.7368L9.99679 24.5334C10.1328 24.5861 10.2739 24.6119 10.4135 24.6119C10.834 24.6119 11.2396 24.3821 11.4449 23.9824C11.7371 23.4134 11.5127 22.7152 10.9436 22.4229Z" fill="#969696"/>
<path d="M11.2787 8.56792L11.8348 8.44337L15.196 6.41772C15.4381 6.27189 15.7133 6.19176 15.995 6.18276C15.8202 5.99649 15.6708 5.78471 15.5531 5.55234L13.7522 6.8154H11.3826H10.4145C10.3422 6.8154 10.2718 6.82313 10.2038 6.83742C10.1898 6.83673 10.1759 6.83562 10.1618 6.83562C10.1082 6.83562 10.054 6.84049 9.9995 6.85065L7.43177 7.32836C6.8266 6.63263 6.21264 5.92688 5.60467 5.22797L7.38435 1.75542C7.64128 1.25411 7.4431 0.63946 6.94183 0.382529C6.44052 0.125544 5.82587 0.323721 5.56894 0.824987L3.47458 4.9117C3.2845 5.2826 3.33918 5.73188 3.61273 6.0463C4.15465 6.66925 5.42491 8.12954 5.99954 8.79008L7.32903 15.9358C6.95681 16.4621 4.68386 19.6766 4.34616 20.1542C3.93922 20.7296 4.13702 21.5321 4.76278 21.8534L6.02653 22.5023L5.77929 20.7266C5.78278 20.6747 5.57471 19.9788 6.13743 19.3654L9.09383 16.5108L6.65457 19.7899C6.47624 20.0329 6.39976 20.3359 6.44131 20.6344L7.22624 26.2719C7.31395 26.902 7.89588 27.3474 8.53265 27.2589C9.16598 27.1707 9.60786 26.5858 9.51967 25.9525L8.79959 20.7806L12.135 16.2531C12.5484 15.6921 12.6991 14.9797 12.5483 14.2994L11.2787 8.56792Z" fill="#969696"/>
<path d="M15.0197 23.9824C15.2251 24.3822 15.6306 24.6119 16.0511 24.6119C16.1906 24.6119 16.3318 24.5861 16.4678 24.5334L16.8571 21.7368L15.521 22.4229C14.952 22.7152 14.7275 23.4134 15.0197 23.9824Z" fill="#969696"/>
<path d="M17.9729 6.4057C18.1491 6.4057 18.3282 6.38315 18.5067 6.33588C19.6168 6.04184 20.2783 4.90359 19.9843 3.79351C19.7375 2.8618 18.896 2.24609 17.9757 2.24609C17.7995 2.24609 17.6203 2.26864 17.4419 2.31591C16.3319 2.60995 15.6703 3.7482 15.9644 4.85828C16.2111 5.78999 17.0525 6.4057 17.9729 6.4057Z" fill="#969696"/>
<path d="M24.6393 2.6514C24.0998 2.5296 23.564 2.87551 23.4231 3.41028L22.4351 7.15993C21.8972 7.22678 20.3938 7.41358 19.8449 7.48175C19.8395 7.48048 16.41 6.81629 16.0476 6.81629C15.869 6.81629 15.6882 6.86298 15.524 6.96191L12.0166 9.05373L12.4635 11.0441L12.6821 10.9951C12.7891 10.9711 12.8916 10.9301 12.9856 10.8734L14.958 9.68478L13.9146 14.313C13.7635 14.9835 13.9109 15.6865 14.3187 16.2397L17.6655 20.7808L16.9491 25.9258C16.862 26.5513 17.2776 27.1505 17.9006 27.2542C17.9655 27.265 18.03 27.2702 18.0936 27.2702C18.6621 27.2702 19.1582 26.8511 19.2388 26.272L20.0238 20.6345C20.0653 20.336 19.9888 20.033 19.8105 19.79L17.1947 16.2224L20.3276 19.3655C20.64 19.6891 20.7674 20.1232 20.7123 20.5369L20.6858 20.7267L20.4385 22.5024L21.7022 21.8535C22.0008 21.7002 22.2182 21.4249 22.2981 21.099C22.3781 20.773 22.3126 20.4284 22.1189 20.1543L19.1141 15.5747L20.3167 9.47877C21.0781 9.38418 21.4855 9.33352 23.3713 9.09919C23.7849 9.0478 24.1257 8.74995 24.2318 8.34693L25.4019 3.90641C25.5485 3.34973 25.2056 2.77923 24.6393 2.6514Z" fill="#969696"/>
<path d="M8.94903 6.3995C9.92446 6.46874 10.8438 5.83985 11.1039 4.85781C11.398 3.74772 10.7364 2.60947 9.62635 2.31543C8.51626 2.0214 7.37801 2.68294 7.08397 3.79303C6.74939 5.05635 7.64828 6.30719 8.94903 6.3995Z" fill="#969696"/>
</g>
<defs>
<clipPath id="clip0_2_17445">
<rect width="27" height="27" fill="white" transform="translate(0.898438 0.269531)"/>
</clipPath>
</defs>
</svg>
