<svg width="28" height="28" viewBox="0 0 28 28" fill="none" xmlns="http://www.w3.org/2000/svg">
<g clip-path="url(#clip0_2_17485)">
<path d="M19.9148 13.5066C19.8515 13.2393 19.6553 13.0245 19.395 12.938L15.514 11.6441L18.2702 6.13176C18.4433 5.78492 18.3397 5.36315 18.0253 5.13602C17.7094 4.90969 17.2768 4.9437 17.0033 5.21866L9.09319 13.1288C8.89929 13.3227 8.81971 13.6031 8.8823 13.8696C8.94564 14.1369 9.14186 14.3517 9.40216 14.4382L13.2831 15.732L10.5269 21.2444C10.3539 21.5913 10.4574 22.013 10.7718 22.2402C11.0867 22.4658 11.5184 22.4328 11.7938 22.1575L19.7039 14.2474C19.8978 14.0535 19.9774 13.7731 19.9148 13.5066Z" fill="#969696"/>
<path d="M14.3984 0.188477C10.3838 0.188477 6.59169 2.05559 4.0625 5.06794V4.19629C4.0625 3.75907 3.70871 3.40527 3.27148 3.40527C2.83426 3.40527 2.48047 3.75907 2.48047 4.19629V7.55658C2.48047 8.31147 3.45553 8.41952 3.27148 8.34759C3.28773 8.34759 3.30392 8.3468 3.32016 8.34606L6.48422 8.14984C6.92065 8.12278 7.25209 7.74737 7.22503 7.31168C7.19798 6.87599 6.81719 6.54771 6.38687 6.57087L4.78406 6.67053C7.00418 3.65054 10.5963 1.77051 14.3984 1.77051C20.9413 1.77051 26.3164 7.14562 26.3164 13.6885C26.3164 14.1257 26.6702 14.4795 27.1074 14.4795C27.5446 14.4795 27.8984 14.1257 27.8984 13.6885C27.8984 6.2735 21.8134 0.188477 14.3984 0.188477Z" fill="#969696"/>
<path d="M25.4767 19.0309L22.3127 19.2271C21.8762 19.2542 21.5448 19.6296 21.5718 20.0653C21.5989 20.501 21.9882 20.8331 22.41 20.8061L24.0128 20.7064C21.7927 23.7264 18.2006 25.6064 14.3984 25.6064C7.85558 25.6064 2.48047 20.2313 2.48047 13.6885C2.48047 13.2513 2.12667 12.8975 1.68945 12.8975C1.25223 12.8975 0.898438 13.2513 0.898438 13.6885C0.898438 21.1035 6.98346 27.1885 14.3984 27.1885C18.4131 27.1885 22.2052 25.3214 24.7344 22.309V23.1807C24.7344 23.6179 25.0882 23.9717 25.5254 23.9717C25.9626 23.9717 26.3164 23.6179 26.3164 23.1807V19.8204C26.3164 19.3858 25.8998 19.0071 25.4767 19.0309Z" fill="#969696"/>
</g>
<defs>
<clipPath id="clip0_2_17485">
<rect width="27" height="27" fill="white" transform="translate(0.898438 0.188477)"/>
</clipPath>
</defs>
</svg>
