<svg width="28" height="28" viewBox="0 0 28 28" fill="none" xmlns="http://www.w3.org/2000/svg">
<g clip-path="url(#clip0_2_17462)">
<path d="M10.3289 20.3379C9.45285 21.1743 8.2668 21.6885 6.96289 21.6885C5.65898 21.6885 4.47293 21.1743 3.59691 20.3379C1.97105 21.4269 0.898438 23.2804 0.898438 25.3799V26.4346C0.898438 26.8715 1.2526 27.2256 1.68945 27.2256H12.2363C12.6732 27.2256 13.0273 26.8715 13.0273 26.4346V25.3799C13.0273 23.2804 11.9547 21.4269 10.3289 20.3379Z" fill="#969696"/>
<path d="M6.96289 20.1064C5.14551 20.1064 3.66699 18.6279 3.66699 16.8105C3.66699 14.9932 5.14551 13.5146 6.96289 13.5146C8.78028 13.5146 10.2588 14.9932 10.2588 16.8105C10.2588 18.6279 8.78028 20.1064 6.96289 20.1064Z" fill="#969696"/>
<path d="M19.7764 7.6084C20.3589 7.6084 20.8311 7.1362 20.8311 6.55371C20.8311 5.97122 20.3589 5.49902 19.7764 5.49902C19.1939 5.49902 18.7217 5.97122 18.7217 6.55371C18.7217 7.1362 19.1939 7.6084 19.7764 7.6084Z" fill="#969696"/>
<path d="M19.7761 9.19043C18.4509 9.19043 17.3305 10.0837 16.9854 11.2998H22.5669C22.2217 10.0837 21.1013 9.19043 19.7761 9.19043Z" fill="#969696"/>
<path d="M27.3346 4.57512C26.5384 3.20091 25.0537 2.41317 23.5031 2.48979C22.7932 1.11295 21.3673 0.225586 19.7762 0.225586C18.1851 0.225586 16.7591 1.11289 16.0493 2.48984C14.4972 2.41296 13.0137 3.20107 12.2177 4.57517C11.4214 5.94959 11.4788 7.62501 12.3199 8.92681C11.4788 10.2286 11.4214 11.904 12.2177 13.2785C13.0138 14.6527 14.4973 15.4405 16.0493 15.3638C16.7591 16.7406 18.1851 17.6279 19.7762 17.6279C21.3673 17.6279 22.7933 16.7406 23.5031 15.3637C23.5721 15.367 23.6409 15.3688 23.7096 15.3688C25.1847 15.3686 26.574 14.5913 27.3346 13.2783C28.1309 11.9039 28.0735 10.2285 27.2324 8.9267C28.0735 7.62501 28.1309 5.94964 27.3346 4.57512ZM23.4676 12.8818H16.0847C15.6479 12.8818 15.2937 12.5277 15.2937 12.0908C15.2937 10.3807 16.2567 8.89169 17.6686 8.13622C17.3366 7.69515 17.1394 7.14703 17.1394 6.55371C17.1394 5.09982 18.3223 3.91699 19.7762 3.91699C21.23 3.91699 22.4129 5.09982 22.4129 6.55371C22.4129 7.14703 22.2158 7.69515 21.8837 8.13622C23.2956 8.89169 24.2586 10.3807 24.2586 12.0908C24.2586 12.5277 23.9044 12.8818 23.4676 12.8818Z" fill="#969696"/>
<path d="M15.1367 24.7471C15.5736 24.7471 15.9277 24.3929 15.9277 23.9561C15.9277 23.5192 15.5736 23.165 15.1367 23.165C14.6999 23.165 14.3457 23.5192 14.3457 23.9561C14.3457 24.3929 14.6999 24.7471 15.1367 24.7471Z" fill="#969696"/>
<path d="M19.7246 23.9561C18.4161 23.9561 17.3516 22.8915 17.3516 21.583C17.3516 20.2745 18.4161 19.21 19.7246 19.21C21.0331 19.21 22.0977 20.2745 22.0977 21.583C22.0977 22.8915 21.0331 23.9561 19.7246 23.9561Z" fill="#969696"/>
</g>
<defs>
<clipPath id="clip0_2_17462">
<rect width="27" height="27" fill="white" transform="translate(0.898438 0.225586)"/>
</clipPath>
</defs>
</svg>
